<?xml version="1.0" encoding="utf-8"?>
<!-- Generator: Adobe Illustrator 24.1.0, SVG Export Plug-In . SVG Version: 6.00 Build 0)  -->
<svg version="1.1" id="Laag_1" xmlns="http://www.w3.org/2000/svg" xmlns:xlink="http://www.w3.org/1999/xlink" x="0px" y="0px"
	 viewBox="0 0 30 30" style="enable-background:new 0 0 30 30;" xml:space="preserve">
<path d="M680-180.9c-19-19.8-38.1-39.7-57.2-59.5c-23.8-24.7-47.6-49.5-71.4-74.2c-4.9-5.1-10.4-7.8-17.5-6.1
	c-13.2,3.2-17.2,18.5-7.4,28.7c27.2,28.4,54.5,56.7,81.8,85c12.3,12.8,24.6,25.7,37.4,39c-2,2.1-3.6,3.8-5.2,5.5
	c-37.7,39.1-75.4,78.2-113,117.4c-3.1,3.4-5.3,7.5-6.2,12c-1.4,6.9,3.2,13.6,9.6,16.5c7.1,3.2,14.1,1.6,20.3-4.9
	C594.1-65.9,637-110.4,680-154.9C688.2-163.5,688.2-172.3,680-180.9z"/>
<path d="M21.5,13.9c-1.6-1.7-3.3-3.4-4.9-5.1c-2-2.1-4.1-4.2-6.1-6.4C10.1,2,9.6,1.8,9,1.9C7.9,2.2,7.6,3.5,8.4,4.4
	c2.3,2.4,4.7,4.9,7,7.3c1.1,1.1,2.1,2.2,3.2,3.3c-0.2,0.2-0.3,0.3-0.4,0.5c-3.2,3.3-6.5,6.7-9.7,10c-0.3,0.3-0.5,0.6-0.5,1
	c-0.1,0.6,0.3,1.2,0.8,1.4c0.6,0.3,1.2,0.1,1.7-0.4c3.7-3.8,7.4-7.6,11-11.4C22.2,15.4,22.2,14.6,21.5,13.9z"/>
</svg>
