<?xml version="1.0" encoding="utf-8"?>
<!-- Generator: Adobe Illustrator 23.0.1, SVG Export Plug-In . SVG Version: 6.00 Build 0)  -->
<svg version="1.1" id="Layer_1" xmlns="http://www.w3.org/2000/svg" xmlns:xlink="http://www.w3.org/1999/xlink" x="0px" y="0px"
	 width="64px" height="64px" viewBox="0 0 64 64" style="enable-background:new 0 0 64 64;" xml:space="preserve">
<style type="text/css">
	.st0{fill-rule:evenodd;clip-rule:evenodd;fill:#A6A8AB;}
</style>
<path class="st0" d="M32,1C14.5,1,0.3,15.2,0.3,32.8c0,14,9.1,25.9,21.7,30.1c1.6,0.3,2.2-0.7,2.2-1.5c0-0.8,0-3.3,0-5.9
	c-8,1.5-10-1.9-10.7-3.7c-0.4-0.9-1.9-3.7-3.3-4.5c-1.1-0.6-2.7-2.1,0-2.1c2.5,0,4.3,2.3,4.9,3.3c2.9,4.8,7.4,3.5,9.2,2.6
	c0.3-2.1,1.1-3.5,2-4.2c-7.1-0.8-14.4-3.5-14.4-15.7c0-3.5,1.2-6.3,3.3-8.5c-0.3-0.8-1.4-4,0.3-8.4c0,0,2.7-0.8,8.7,3.3
	c2.5-0.7,5.2-1.1,7.9-1.1s5.4,0.4,7.9,1.1c6.1-4.1,8.7-3.3,8.7-3.3c1.7,4.4,0.6,7.6,0.3,8.4c2,2.2,3.3,5,3.3,8.5
	c0,12.2-7.4,14.9-14.5,15.7c1.2,1,2.1,2.9,2.1,5.9c0,4.2,0,7.7,0,8.7c0,0.8,0.6,1.8,2.2,1.5c12.5-4.2,21.6-16.1,21.6-30.1
	C63.7,15.2,49.5,1,32,1z"/>
</svg>
