<svg width="37" height="37" viewBox="0 0 37 37" fill="none" xmlns="http://www.w3.org/2000/svg">
<path d="M18.2998 35.7C27.6886 35.7 35.2998 28.0888 35.2998 18.7C35.2998 9.31111 27.6886 1.69995 18.2998 1.69995C8.91096 1.69995 1.2998 9.31111 1.2998 18.7C1.2998 28.0888 8.91096 35.7 18.2998 35.7Z" fill="white" stroke="#010101" stroke-width="2.2441" stroke-miterlimit="10" stroke-linecap="round" stroke-linejoin="round"/>
<path d="M23.3992 15.2C24.5992 15.2 25.5992 14.1999 25.5992 12.9999C25.5992 11.7999 24.5992 10.7999 23.3992 10.7999C22.1992 10.7999 21.1992 11.7999 21.1992 12.9999C21.1992 14.1999 22.1992 15.2 23.3992 15.2Z" fill="#010101"/>
<path d="M13.2 15.2C14.4 15.2 15.4 14.1999 15.4 12.9999C15.4 11.7999 14.4 10.7999 13.2 10.7999C12 10.7999 11 11.7999 11 12.9999C11 14.1999 12 15.2 13.2 15.2Z" fill="#010101"/>
<path d="M10.5996 23.6C10.6996 23.8 12.1996 28.6 18.2996 28.6C24.2996 28.6 25.8996 23.8 25.9996 23.6" fill="white"/>
<path d="M10.5996 23.6C10.6996 23.8 12.1996 28.6 18.2996 28.6C24.2996 28.6 25.8996 23.8 25.9996 23.6" stroke="#010101" stroke-width="2.2441" stroke-miterlimit="10" stroke-linecap="round" stroke-linejoin="round"/>
</svg>
