<?xml version="1.0" encoding="utf-8"?>
<!-- Generator: Adobe Illustrator 23.0.1, SVG Export Plug-In . SVG Version: 6.00 Build 0)  -->
<svg version="1.1" baseProfile="tiny" id="Layer_1" xmlns="http://www.w3.org/2000/svg" xmlns:xlink="http://www.w3.org/1999/xlink"
	 x="0px" y="0px" width="1024px" height="200px" viewBox="0 0 1024 200" xml:space="preserve">
<circle fill="#FFFFFF" stroke="#000000" stroke-miterlimit="10" cx="113.5" cy="100" r="84.6"/>
<circle fill="#FFFFFF" stroke="#000000" stroke-miterlimit="10" cx="310.7" cy="100" r="84.6"/>
<circle fill="#FFFFFF" stroke="#000000" stroke-miterlimit="10" cx="507.8" cy="100" r="84.6"/>
<circle fill="#FFFFFF" stroke="#000000" stroke-miterlimit="10" cx="705" cy="100" r="84.6"/>
<circle fill="#FFFFFF" stroke="#000000" stroke-miterlimit="10" cx="902.2" cy="100" r="84.6"/>
<rect x="87.1" y="66.8" fill="none" width="70" height="77.3"/>
<text transform="matrix(1 0 0 1 87.0761 123.5812)" font-family="'MyriadPro-Regular'" font-size="80px">A</text>
<rect x="284.6" y="66.8" fill="none" width="70" height="77.3"/>
<text transform="matrix(1 0 0 1 284.5803 123.5812)" font-family="'MyriadPro-Regular'" font-size="80px">A</text>
<rect x="482.1" y="66.8" fill="none" width="70" height="77.3"/>
<text transform="matrix(1 0 0 1 482.0845 123.5812)" font-family="'MyriadPro-Regular'" font-size="80px">A</text>
<rect x="679.6" y="66.8" fill="none" width="70" height="77.3"/>
<text transform="matrix(1 0 0 1 679.5887 123.5812)" font-family="'MyriadPro-Regular'" font-size="80px">A</text>
<rect x="877.1" y="66.8" fill="none" width="70" height="77.3"/>
<text transform="matrix(1 0 0 1 877.0929 123.5812)" font-family="'MyriadPro-Regular'" font-size="80px">A</text>
</svg>
