<?xml version="1.0" encoding="utf-8"?>
<!-- Generator: Adobe Illustrator 23.0.1, SVG Export Plug-In . SVG Version: 6.00 Build 0)  -->
<svg version="1.1" id="Layer_1" xmlns="http://www.w3.org/2000/svg" xmlns:xlink="http://www.w3.org/1999/xlink" x="0px" y="0px"
	 width="64px" height="64px" viewBox="0 0 64 64" style="enable-background:new 0 0 64 64;" xml:space="preserve">
<style type="text/css">
	.st0{fill:#A6A8AB;}
</style>
<path class="st0" d="M32.1,13.2c2.2-0.1,4-1.8,4.1-4.1c0.1-2.4-1.9-4.4-4.3-4.3c-2.2,0.1-4,1.8-4.1,4.1
	C27.7,11.3,29.7,13.2,32.1,13.2z M62.5,38.3h-1.2L53,22.2c1.2-0.1,2.4-0.6,3.4-1c1.6-0.7,1.9-2.8,0.7-4.1L57.1,17
	c-0.7-0.7-1.8-1-2.8-0.5c-0.9,0.4-2.2,0.9-3.5,0.9c-3.7,0-5.3-4.2-18.8-4.2s-15.1,4.2-18.8,4.2c-1.3,0-2.6-0.4-3.5-0.9
	c-1-0.4-2.1-0.2-2.8,0.5l-0.1,0.1c-1.2,1.2-0.9,3.3,0.7,4.1c1,0.5,2.2,0.9,3.4,1L2.7,38.3H1.5c-0.5,0-0.9,0.5-0.9,1
	c0.7,4.2,6,7.4,12.5,7.4s11.8-3.2,12.5-7.4c0.1-0.5-0.3-1-0.9-1h-1.2l-8.3-16c5.4-0.5,8.3-3.2,12.5-3.2v31.8c-2.3,0-4.2,1.9-4.2,4.2
	H19c-1.8,0-3.7,1.9-3.7,4.2h33.5c0-2.3-1.9-4.2-4.6-4.2h-3.7c0-2.3-1.9-4.2-4.2-4.2V19c4.2,0,7.1,2.7,12.5,3.2l-8.3,16h-1.2
	c-0.5,0-0.9,0.5-0.9,1c0.7,4.2,6,7.4,12.5,7.4s11.8-3.2,12.5-7.4C63.4,38.7,63,38.3,62.5,38.3z M19.4,38.3H6.9l6.3-11.8L19.4,38.3z
	 M44.6,38.3l6.3-11.8l6.3,11.8H44.6z"/>
</svg>
