<svg width="37" height="38" viewBox="0 0 37 38" fill="none" xmlns="http://www.w3.org/2000/svg">
<path d="M18.5996 36.1C27.9884 36.1 35.5996 28.4888 35.5996 19.1C35.5996 9.71113 27.9884 2.09998 18.5996 2.09998C9.21077 2.09998 1.59961 9.71113 1.59961 19.1C1.59961 28.4888 9.21077 36.1 18.5996 36.1Z" stroke="#010101" stroke-width="2.2441" stroke-miterlimit="10" stroke-linecap="round" stroke-linejoin="round"/>
<path d="M23.7 15.5999C24.9 15.5999 25.9 14.5999 25.9 13.3999C25.9 12.1999 24.9 11.2 23.7 11.2C22.5 11.2 21.5 12.1999 21.5 13.3999C21.5 14.5999 22.5 15.5999 23.7 15.5999Z" fill="#010101"/>
<path d="M13.4998 15.5999C14.6998 15.5999 15.6998 14.5999 15.6998 13.3999C15.6998 12.1999 14.6998 11.2 13.4998 11.2C12.2998 11.2 11.2998 12.1999 11.2998 13.3999C11.2998 14.5999 12.2998 15.5999 13.4998 15.5999Z" fill="#010101"/>
<path d="M10.8994 23.8999C14.4994 23.8999 22.6994 23.8999 26.2994 23.8999" stroke="#010101" stroke-width="2.2441" stroke-miterlimit="10" stroke-linecap="round" stroke-linejoin="round"/>
</svg>
