<?xml version="1.0" encoding="utf-8"?>
<!-- Generator: Adobe Illustrator 24.1.0, SVG Export Plug-In . SVG Version: 6.00 Build 0)  -->
<svg version="1.1" id="Capa_1" xmlns="http://www.w3.org/2000/svg" xmlns:xlink="http://www.w3.org/1999/xlink" x="0px" y="0px"
	 viewBox="0 0 64 64" style="enable-background:new 0 0 64 64;" xml:space="preserve">
<style type="text/css">
	.st0{fill:#A6A8AB;}
</style>
<g>
	<g>
		<g>
			<rect x="28.8" y="44.8" class="st0" width="6.4" height="6.4"/>
			<path class="st0" d="M32,12.8c-7.1,0-12.8,5.7-12.8,12.8h6.4c0-3.5,2.9-6.4,6.4-6.4s6.4,2.9,6.4,6.4c0,6.4-9.6,5.6-9.6,16h6.4
				c0-7.2,9.6-8,9.6-16C44.8,18.5,39.1,12.8,32,12.8z"/>
			<path class="st0" d="M32,0C14.3,0,0,14.3,0,32s14.3,32,32,32s32-14.3,32-32S49.7,0,32,0z M32,57.6C17.9,57.6,6.4,46.1,6.4,32
				S17.9,6.4,32,6.4S57.6,17.9,57.6,32S46.1,57.6,32,57.6z"/>
		</g>
	</g>
</g>
</svg>
