<svg width="37" height="37" viewBox="0 0 37 37" fill="none" xmlns="http://www.w3.org/2000/svg">
<path d="M18.2998 35.6C27.6886 35.6 35.2998 27.9888 35.2998 18.6C35.2998 9.21113 27.6886 1.59998 18.2998 1.59998C8.91096 1.59998 1.2998 9.21113 1.2998 18.6C1.2998 27.9888 8.91096 35.6 18.2998 35.6Z" stroke="#010101" stroke-width="2.2441" stroke-miterlimit="10" stroke-linecap="round" stroke-linejoin="round"/>
<path d="M23.3992 15.0999C24.5992 15.0999 25.5992 14.0999 25.5992 12.8999C25.5992 11.6999 24.5992 10.7 23.3992 10.7C22.1992 10.7 21.1992 11.6999 21.1992 12.8999C21.1992 14.0999 22.1992 15.0999 23.3992 15.0999Z" fill="black"/>
<path d="M13.2 15.0999C14.4 15.0999 15.4 14.0999 15.4 12.8999C15.4 11.6999 14.4 10.7 13.2 10.7C12 10.7 11 11.6999 11 12.8999C11 14.0999 12 15.0999 13.2 15.0999Z" fill="black"/>
<path d="M25.9996 27.1C25.8996 26.9 24.3996 22.1 18.2996 22.1C12.2996 22.1 10.6996 26.9 10.5996 27.1" stroke="#010101" stroke-width="2.2441" stroke-miterlimit="10" stroke-linecap="round" stroke-linejoin="round"/>
</svg>
