<?xml version="1.0" encoding="utf-8"?>
<!-- Generator: Adobe Illustrator 23.1.1, SVG Export Plug-In . SVG Version: 6.00 Build 0)  -->
<svg version="1.1" id="Layer_1" xmlns="http://www.w3.org/2000/svg" xmlns:xlink="http://www.w3.org/1999/xlink" x="0px" y="0px"
	 viewBox="0 0 768.9 771.5" style="enable-background:new 0 0 768.9 771.5;" xml:space="preserve">
<style type="text/css">
	.st0{fill:#A6A8AB;stroke:#A6A8AB;stroke-width:37;stroke-miterlimit:10;}
</style>
<path class="st0" d="M162.5,572c-8.8,0-16-7.2-16-16V76c0-8.8,7.2-16,16-16s16,7.2,16,16v480C178.5,564.9,171.4,572,162.5,572z"/>
<path class="st0" d="M386.5,337.4h-224c-8.8,0-16-7.2-16-16s7.2-16,16-16h224c2.9,0,5.3-2.4,5.3-5.3V97.4c0-2.9-2.4-5.3-5.3-5.3
	h-224c-8.8,0-16-7.2-16-16s7.2-16,16-16h224c20.6,0,37.3,16.7,37.3,37.3V300C423.9,320.6,407.1,337.4,386.5,337.4z"/>
<path class="st0" d="M535.9,422.7H322.5c-20.6,0-37.3-16.7-37.3-37.3v-64c0-8.8,7.2-16,16-16s16,7.2,16,16v64c0,2.9,2.4,5.3,5.3,5.3
	h213.3c2.9,0,5.3-2.4,5.3-5.3V182.7c0-2.9-2.4-5.3-5.3-5.3h-128c-8.8,0-16-7.2-16-16s7.2-16,16-16h128c20.6,0,37.3,16.7,37.3,37.3
	v202.7C573.2,406,556.5,422.7,535.9,422.7z"/>
<rect x="178.5" y="92" class="st0" width="205.9" height="205.9"/>
<rect x="303.9" y="179.7" class="st0" width="245.7" height="206.1"/>
</svg>
